<?xml version="1.0" standalone="no"?><!DOCTYPE svg PUBLIC "-//W3C//DTD SVG 1.1//EN" "http://www.w3.org/Graphics/SVG/1.1/DTD/svg11.dtd"><svg t="1686063553286" class="icon" viewBox="0 0 1024 1024" version="1.1" xmlns="http://www.w3.org/2000/svg" p-id="4157" width="48" height="48" xmlns:xlink="http://www.w3.org/1999/xlink"><path d="M240.89 399.588v224.894c0 13.5-10.944 24.444-24.444 24.444-13.5 0-24.446-10.944-24.446-24.444V399.588c0-13.5 10.944-24.446 24.446-24.446 13.5 0 24.444 10.946 24.444 24.446zM832 399.588v224.894c0 13.5-10.946 24.444-24.446 24.444s-24.446-10.944-24.446-24.444V399.588c0-13.5 10.946-24.446 24.446-24.446S832 386.088 832 399.588z" fill="#DFECFD" p-id="4158"></path><path d="M392 192h240c44.184 0 80 35.818 80 80v480c0 44.184-35.816 80-80 80H392c-44.182 0-80-35.816-80-80V272c0-44.182 35.818-80 80-80z" fill="#4988FD" p-id="4159"></path><path d="M632 832H392c-44.112 0-80-35.888-80-80V272c0-44.112 35.888-80 80-80h240c44.112 0 80 35.888 80 80v480c0 44.112-35.888 80-80 80zM392 252c-11.028 0-20 8.972-20 20v480c0 11.028 8.972 20 20 20h240c11.028 0 20-8.972 20-20V272c0-11.028-8.972-20-20-20H392z" fill="#4988FD" p-id="4160"></path><path d="M512 698m-38 0a38 38 0 1 0 76 0 38 38 0 1 0-76 0Z" fill="#DFECFD" p-id="4161"></path></svg>