<svg width="34" height="15" viewBox="0 0 34 15" fill="none" xmlns="http://www.w3.org/2000/svg">
<g id="Group 1000007972">
<g id="Group 1000007776">
<rect id="Rectangle 11217" width="34" height="15" rx="1" fill="#0171EF"/>
</g>
<g id="&#228;&#187;&#138;&#230;&#151;&#165;">
<path d="M11.1299 5.39003C11.9699 5.76003 12.7399 6.21003 13.4399 6.75003L13.0599 7.35003C12.2999 6.76003 11.5299 6.30003 10.7399 5.96003L11.1299 5.39003ZM8.45988 7.76003H15.4799V8.31003C14.8299 9.93003 13.5299 11.17 11.5699 12.01L11.0899 11.39C12.7899 10.69 13.9799 9.71003 14.6399 8.43003H8.45988V7.76003ZM11.7499 2.84003H12.2699C13.5299 4.24003 14.9799 5.35003 16.6399 6.16003L16.2599 6.83003C14.5999 5.99003 13.1799 4.88003 12.0099 3.52003C10.9299 4.80003 9.51988 5.90003 7.75988 6.84003L7.37988 6.16003C9.12988 5.28003 10.5899 4.17003 11.7499 2.84003Z" fill="white"/>
<path d="M25.1899 3.23003V11.95H24.4599V11.19H19.7299V11.96H19.0099V3.23003H25.1899ZM19.7299 10.49H24.4599V7.48003H19.7299V10.49ZM19.7299 6.78003H24.4599V3.93003H19.7299V6.78003Z" fill="white"/>
</g>
</g>
</svg>
