<?xml version="1.0" standalone="no"?><!DOCTYPE svg PUBLIC "-//W3C//DTD SVG 1.1//EN" "http://www.w3.org/Graphics/SVG/1.1/DTD/svg11.dtd"><svg t="1686063597367" class="icon" viewBox="0 0 1024 1024" version="1.1" xmlns="http://www.w3.org/2000/svg" p-id="4557" width="48" height="48" xmlns:xlink="http://www.w3.org/1999/xlink"><path d="M375.208 528.902a82.824 82.824 0 0 1-31.288-6.088 82.586 82.586 0 0 1-27.508-18.264l-70.548-70.548a82.644 82.644 0 0 1-18.266-27.506 82.864 82.864 0 0 1-6.088-31.288 82.864 82.864 0 0 1 6.088-31.288 82.618 82.618 0 0 1 18.266-27.502l70.548-70.554a82.644 82.644 0 0 1 27.506-18.266 82.856 82.856 0 0 1 31.288-6.088 82.874 82.874 0 0 1 31.29 6.088 82.614 82.614 0 0 1 27.506 18.266l70.548 70.554a96.588 96.588 0 0 1 7.562 10.506 116.1 116.1 0 0 1 12.728 27.182 79.888 79.888 0 0 1 2.954 37.358c-2.548 14.848-9.872 28.652-21.764 41.028l-88.588-88.584a39.722 39.722 0 0 0-28.284-11.718 39.756 39.756 0 0 0-28.288 11.718l-16.97 16.97c-15.594 15.63-15.594 40.936 0 56.566l88.584 88.584a82.73 82.73 0 0 1-57.276 22.874z" fill="#4988FD" p-id="4558"></path><path d="M375.374 558.902h-0.228a112.418 112.418 0 0 1-42.514-8.292 111.92 111.92 0 0 1-37.476-24.886l-70.506-70.506a111.942 111.942 0 0 1-24.856-37.452 112.364 112.364 0 0 1-8.284-42.594 112.278 112.278 0 0 1 8.292-42.536 111.956 111.956 0 0 1 24.89-37.47l70.506-70.512a111.93 111.93 0 0 1 37.454-24.856 112.312 112.312 0 0 1 42.442-8.284h0.226a112.342 112.342 0 0 1 42.462 8.292 111.992 111.992 0 0 1 37.474 24.89l71.512 71.516 0.904 1.094a127.588 127.588 0 0 1 9.822 13.626 146.154 146.154 0 0 1 15.9 33.978 110.372 110.372 0 0 1 4.026 51.274l-0.058 0.358c-3.584 20.87-13.576 39.958-29.702 56.74l-21.204 22.066-110.228-110.222a9.846 9.846 0 0 0-6.96-2.932h-0.216c-2.612 0-5.068 1.02-6.912 2.874l-17.028 17.028c-3.878 3.886-3.878 10.252 0.026 14.166l110.278 110.278-22.226 21.202c-21.066 20.092-48.702 31.16-77.816 31.16z m-0.282-307.39a52.6 52.6 0 0 0-19.888 3.884 52.366 52.366 0 0 0-17.538 11.64l-70.59 70.596a52.404 52.404 0 0 0-11.676 17.558 52.654 52.654 0 0 0-3.89 19.982 52.752 52.752 0 0 0 3.884 20.04 52.36 52.36 0 0 0 11.642 17.538l70.59 70.588a52.348 52.348 0 0 0 17.558 11.67 52.656 52.656 0 0 0 19.904 3.894h0.288c2.386 0 4.752-0.16 7.084-0.472l-59.772-59.772c-27.24-27.304-27.24-71.688-0.026-98.966l16.996-16.996c12.94-13.01 30.964-20.504 49.394-20.504h0.216c18.428 0 36.452 7.496 49.446 20.566l59.926 59.922a50.186 50.186 0 0 0-2.32-19.262l-0.066-0.208a86.26 86.26 0 0 0-9.44-20.16l-0.17-0.27a66.668 66.668 0 0 0-4.408-6.248l-69.452-69.456a52.408 52.408 0 0 0-17.558-11.674 52.678 52.678 0 0 0-19.91-3.892h-0.224z" fill="#4988FD" p-id="4559"></path><path d="M649.126 495.512a82.88 82.88 0 0 1 58.798 24.352l70.542 70.55c32.468 32.414 32.514 85.016 0.1 117.484l-0.1 0.1-70.552 70.548c-32.414 32.47-85.014 32.516-117.484 0.102l-0.1-0.102-70.55-70.55a96.738 96.738 0 0 1-7.562-10.496 116.22 116.22 0 0 1-12.726-27.2 79.882 79.882 0 0 1-2.952-37.356c2.548-14.846 9.878-28.644 21.762-41.022l88.586 88.576c15.622 15.622 40.948 15.622 56.566 0l16.962-16.96c15.596-15.632 15.596-40.938 0-56.57l-88.584-88.582a82.774 82.774 0 0 1 57.294-22.874z" fill="#DFECFD" p-id="4560"></path><path d="M649.124 832.93c-30.164 0-58.536-11.736-79.886-33.048l-71.668-71.672-0.902-1.088a127.072 127.072 0 0 1-9.828-13.626 146.23 146.23 0 0 1-15.902-34.004 110.376 110.376 0 0 1-4.022-51.264l0.06-0.356c3.578-20.85 13.568-39.936 29.692-56.726l21.204-22.08 110.234 110.22c2.548 2.55 5.524 2.932 7.07 2.932s4.522-0.38 7.068-2.928l16.964-16.964c3.878-3.886 3.878-10.254-0.026-14.168l-110.28-110.276 22.226-21.202c21.068-20.1 48.71-31.168 77.832-31.168h0.226c30.264 0 58.646 11.778 79.978 33.166l70.518 70.524c44.106 44.034 44.166 115.768 0.116 159.892l-70.67 70.666c-21.342 21.382-49.762 33.17-80.004 33.17z m-37.274-75.294c9.994 9.866 23.218 15.292 37.274 15.292 14.194 0 27.534-5.534 37.56-15.578l70.572-70.566c20.758-20.792 20.728-54.462 0.018-75.14l-70.562-70.568c-9.876-9.9-23.522-15.564-37.466-15.564h-0.284c-2.392 0-4.764 0.16-7.1 0.472l59.772 59.772c27.24 27.304 27.24 71.692 0.026 98.97l-16.988 16.988c-13.218 13.218-30.796 20.502-49.496 20.502-18.698 0-36.276-7.284-49.496-20.504l-59.984-59.978a50.144 50.144 0 0 0 2.318 19.254l0.07 0.218a86.246 86.246 0 0 0 9.44 20.174l0.156 0.248a67.508 67.508 0 0 0 4.41 6.248l69.76 69.76z" fill="#DFECFD" p-id="4561"></path></svg>